# xmcd
#
# Track frame offsets:
#	150
#	21407
#	42817
#	63330
#	84954
#	102807
#	120670
#	142962
#	161670
#	181485
#	206242
#	227567
#	246845
#	266830
#	288362
#
# Disc length: 4087 seconds
#
# Revision: 1
# Processed by: cddbd v1.5.1PL0 Copyright (c) Steve Scherf et al.
# Submitted via: CDex 1.50Beta5
#
DISCID=d10ff50f
DTITLE=加藤登紀子 - 加藤登紀子 ベスト Disc 2
DYEAR=2001
DGENRE=
TTITLE0=Revolution
TTITLE1=私のヴァンサンカン
TTITLE2=18の頃〜Chez Maria〜
TTITLE3=雑踏〜La Foule〜(Paris Version)
TTITLE4=さくらんぼの実る頃
TTITLE5=時には昔の話を
TTITLE6=美しき20歳
TTITLE7=バラ色のハンカチ
TTITLE8=島唄
TTITLE9=川は流れる
TTITLE10=花 HANA
TTITLE11=まっすぐ見つめたい
TTITLE12=人・生・不・思・議
TTITLE13=愛がとどかない
TTITLE14=ふるさとは忘れない
EXTD=
EXTT0=
EXTT1=
EXTT2=
EXTT3=
EXTT4=
EXTT5=
EXTT6=
EXTT7=
EXTT8=
EXTT9=
EXTT10=
EXTT11=
EXTT12=
EXTT13=
EXTT14=
PLAYORDER=
